<svg width="640" height="640" viewBox="0 0 640 640" fill="none" xmlns="http://www.w3.org/2000/svg">
<path d="M128 128C92.7 128 64 156.7 64 192V448C64 483.3 92.7 512 128 512H512C547.3 512 576 483.3 576 448V192C576 156.7 547.3 128 512 128H128ZM480 248V392C480 405.3 469.3 416 456 416C448.9 416 442.5 412.9 438.1 408C427.9 413.1 416.3 416 404 416C362 416 328 382 328 340C328 298 362 264 404 264C413.9 264 423.3 265.9 432 269.3V248C432 234.7 442.7 224 456 224C469.3 224 480 234.7 480 248ZM432 340C432 324.5 419.5 312 404 312C388.5 312 376 324.5 376 340C376 355.5 388.5 368 404 368C419.5 368 432 355.5 432 340ZM224 272C215.2 272 208 279.2 208 288V320H256V288C256 279.2 248.8 272 240 272H224ZM256 368H208V392C208 405.3 197.3 416 184 416C170.7 416 160 405.3 160 392V288C160 252.7 188.7 224 224 224H240C275.3 224 304 252.7 304 288V392C304 405.3 293.3 416 280 416C266.7 416 256 405.3 256 392V368Z" fill="#F37339"/>
</svg>
