<svg width="640" height="640" viewBox="0 0 640 640" fill="none" xmlns="http://www.w3.org/2000/svg">
<path d="M425 64C438.3 64 449 74.7 449 88V128H481C516.3 128 545 156.7 545 192V480C545 515.3 516.3 544 481 544H161C125.7 544 97 515.3 97 480V192C97 156.7 125.7 128 161 128H193V88C193 74.7 203.7 64 217 64C230.3 64 241 74.7 241 88V128H401V88C401 74.7 411.7 64 425 64ZM161 176C152.2 176 145 183.2 145 192V480C145 488.8 152.2 496 161 496H481C489.8 496 497 488.8 497 480V192C497 183.2 489.8 176 481 176H161ZM391.7 241.9C399.5 231.2 414.5 228.8 425.2 236.6C435.9 244.4 438.3 259.4 430.5 270.1L308.4 438.1C304.3 443.8 297.9 447.4 290.9 447.9C283.9 448.4 277 445.9 272.1 441L216.2 385.1C206.8 375.7 206.8 360.5 216.2 351.2C225.6 341.9 240.8 341.8 250.1 351.2L286.1 387.2L391.7 242V241.9Z" fill="#F37339"/>
</svg>
