<svg width="640" height="640" viewBox="0 0 640 640" fill="none" xmlns="http://www.w3.org/2000/svg">
<path d="M320 128C241 128 175.3 185.3 162.3 260.7C171.6 257.7 181.6 256 192 256H208C234.5 256 256 277.5 256 304V400C256 426.5 234.5 448 208 448H192C139 448 96 405 96 352V288C96 164.3 196.3 64 320 64C443.7 64 544 164.3 544 288V456.1C544 522.4 490.2 576.1 423.9 576.1L336 576H304C277.5 576 256 554.5 256 528C256 501.5 277.5 480 304 480H336C362.5 480 384 501.5 384 528H424C463.8 528 496 495.8 496 456V435.1C481.9 443.3 465.5 447.9 448 447.9H432C405.5 447.9 384 426.4 384 399.9V303.9C384 277.4 405.5 255.9 432 255.9H448C458.4 255.9 468.3 257.5 477.7 260.6C464.7 185.3 399.1 127.9 320 127.9V128Z" fill="#F37339"/>
</svg>
